<mxfile host="app.diagrams.net" modified="2021-12-18T08:40:49.743Z" agent="5.0 (Windows NT 10.0; Win64; x64) AppleWebKit/537.36 (KHTML, like Gecko) Chrome/96.0.4664.110 Safari/537.36" etag="89FkGN65bAfJLFzP0bZy" version="16.0.0" type="github">
  <diagram id="Cv4vCiUGaOGETwyBSDAJ" name="Page-1">
    <mxGraphModel dx="1422" dy="772" grid="1" gridSize="10" guides="1" tooltips="1" connect="1" arrows="1" fold="1" page="1" pageScale="1" pageWidth="850" pageHeight="1100" math="0" shadow="0">
      <root>
        <mxCell id="0" />
        <mxCell id="1" parent="0" />
        <mxCell id="FDbi_Wailx2Y1f7848vw-9" value="" style="edgeStyle=orthogonalEdgeStyle;rounded=0;orthogonalLoop=1;jettySize=auto;html=1;" parent="1" source="rCTr0ygX4qg42ZaqoY2R-2" target="rCTr0ygX4qg42ZaqoY2R-26" edge="1">
          <mxGeometry relative="1" as="geometry" />
        </mxCell>
        <mxCell id="FDbi_Wailx2Y1f7848vw-16" value="" style="edgeStyle=orthogonalEdgeStyle;rounded=0;orthogonalLoop=1;jettySize=auto;html=1;" parent="1" source="rCTr0ygX4qg42ZaqoY2R-2" target="rCTr0ygX4qg42ZaqoY2R-11" edge="1">
          <mxGeometry relative="1" as="geometry" />
        </mxCell>
        <mxCell id="rCTr0ygX4qg42ZaqoY2R-2" value="Service 1&lt;br&gt;" style="ellipse;whiteSpace=wrap;html=1;aspect=fixed;fillColor=#ffe6cc;strokeColor=#d79b00;" parent="1" vertex="1">
          <mxGeometry x="10" y="550" width="140" height="140" as="geometry" />
        </mxCell>
        <mxCell id="FDbi_Wailx2Y1f7848vw-7" value="" style="edgeStyle=orthogonalEdgeStyle;rounded=0;orthogonalLoop=1;jettySize=auto;html=1;" parent="1" source="rCTr0ygX4qg42ZaqoY2R-4" target="rCTr0ygX4qg42ZaqoY2R-26" edge="1">
          <mxGeometry relative="1" as="geometry" />
        </mxCell>
        <mxCell id="FDbi_Wailx2Y1f7848vw-11" value="" style="edgeStyle=orthogonalEdgeStyle;rounded=0;orthogonalLoop=1;jettySize=auto;html=1;" parent="1" source="rCTr0ygX4qg42ZaqoY2R-4" target="rCTr0ygX4qg42ZaqoY2R-38" edge="1">
          <mxGeometry relative="1" as="geometry" />
        </mxCell>
        <mxCell id="FDbi_Wailx2Y1f7848vw-17" value="" style="edgeStyle=orthogonalEdgeStyle;rounded=0;orthogonalLoop=1;jettySize=auto;html=1;" parent="1" source="rCTr0ygX4qg42ZaqoY2R-4" target="rCTr0ygX4qg42ZaqoY2R-37" edge="1">
          <mxGeometry relative="1" as="geometry" />
        </mxCell>
        <mxCell id="rCTr0ygX4qg42ZaqoY2R-4" value="&lt;span&gt;Service 2&lt;/span&gt;" style="ellipse;whiteSpace=wrap;html=1;aspect=fixed;fillColor=#f8cecc;strokeColor=#b85450;" parent="1" vertex="1">
          <mxGeometry x="355" y="550" width="140" height="140" as="geometry" />
        </mxCell>
        <mxCell id="FDbi_Wailx2Y1f7848vw-18" value="" style="edgeStyle=orthogonalEdgeStyle;rounded=0;orthogonalLoop=1;jettySize=auto;html=1;" parent="1" target="rCTr0ygX4qg42ZaqoY2R-41" edge="1">
          <mxGeometry relative="1" as="geometry">
            <mxPoint x="760" y="690" as="sourcePoint" />
          </mxGeometry>
        </mxCell>
        <mxCell id="l2jQnzpIf_8DxFZvxWi1-15" value="" style="edgeStyle=orthogonalEdgeStyle;rounded=0;orthogonalLoop=1;jettySize=auto;html=1;fontSize=14;" edge="1" parent="1" source="rCTr0ygX4qg42ZaqoY2R-5" target="rCTr0ygX4qg42ZaqoY2R-38">
          <mxGeometry relative="1" as="geometry" />
        </mxCell>
        <mxCell id="rCTr0ygX4qg42ZaqoY2R-5" value="&lt;span&gt;Service 3&lt;/span&gt;" style="ellipse;whiteSpace=wrap;html=1;aspect=fixed;fillColor=#f5f5f5;strokeColor=#666666;fontColor=#333333;" parent="1" vertex="1">
          <mxGeometry x="695" y="550" width="140" height="140" as="geometry" />
        </mxCell>
        <mxCell id="FDbi_Wailx2Y1f7848vw-19" style="edgeStyle=orthogonalEdgeStyle;rounded=0;orthogonalLoop=1;jettySize=auto;html=1;entryX=0.5;entryY=1;entryDx=0;entryDy=0;" parent="1" source="rCTr0ygX4qg42ZaqoY2R-11" target="rCTr0ygX4qg42ZaqoY2R-2" edge="1">
          <mxGeometry relative="1" as="geometry" />
        </mxCell>
        <mxCell id="rCTr0ygX4qg42ZaqoY2R-11" value="DB" style="shape=cylinder3;whiteSpace=wrap;html=1;boundedLbl=1;backgroundOutline=1;size=15;" parent="1" vertex="1">
          <mxGeometry x="50" y="740" width="60" height="80" as="geometry" />
        </mxCell>
        <mxCell id="rCTr0ygX4qg42ZaqoY2R-16" value="APP" style="whiteSpace=wrap;html=1;aspect=fixed;" parent="1" vertex="1">
          <mxGeometry x="295" y="130" width="80" height="80" as="geometry" />
        </mxCell>
        <mxCell id="rCTr0ygX4qg42ZaqoY2R-19" value="WEB" style="whiteSpace=wrap;html=1;aspect=fixed;" parent="1" vertex="1">
          <mxGeometry x="455" y="130" width="80" height="80" as="geometry" />
        </mxCell>
        <mxCell id="FDbi_Wailx2Y1f7848vw-6" value="" style="edgeStyle=orthogonalEdgeStyle;rounded=0;orthogonalLoop=1;jettySize=auto;html=1;" parent="1" source="rCTr0ygX4qg42ZaqoY2R-26" edge="1">
          <mxGeometry relative="1" as="geometry">
            <mxPoint x="355" y="620" as="targetPoint" />
          </mxGeometry>
        </mxCell>
        <mxCell id="FDbi_Wailx2Y1f7848vw-10" style="edgeStyle=orthogonalEdgeStyle;rounded=0;orthogonalLoop=1;jettySize=auto;html=1;entryX=1;entryY=0.5;entryDx=0;entryDy=0;" parent="1" source="rCTr0ygX4qg42ZaqoY2R-26" target="rCTr0ygX4qg42ZaqoY2R-2" edge="1">
          <mxGeometry relative="1" as="geometry" />
        </mxCell>
        <mxCell id="rCTr0ygX4qg42ZaqoY2R-26" value="Comunication" style="rounded=1;whiteSpace=wrap;html=1;" parent="1" vertex="1">
          <mxGeometry x="190" y="590" width="120" height="60" as="geometry" />
        </mxCell>
        <mxCell id="rCTr0ygX4qg42ZaqoY2R-32" value="&lt;font style=&quot;font-size: 14px&quot;&gt;API GATEWAY&lt;/font&gt;" style="ellipse;whiteSpace=wrap;html=1;fillColor=#e1d5e7;strokeColor=#9673a6;" parent="1" vertex="1">
          <mxGeometry x="320" y="290" width="200" height="130" as="geometry" />
        </mxCell>
        <mxCell id="FDbi_Wailx2Y1f7848vw-20" style="edgeStyle=orthogonalEdgeStyle;rounded=0;orthogonalLoop=1;jettySize=auto;html=1;" parent="1" source="rCTr0ygX4qg42ZaqoY2R-37" edge="1">
          <mxGeometry relative="1" as="geometry">
            <mxPoint x="425" y="690" as="targetPoint" />
          </mxGeometry>
        </mxCell>
        <mxCell id="rCTr0ygX4qg42ZaqoY2R-37" value="DB" style="shape=cylinder3;whiteSpace=wrap;html=1;boundedLbl=1;backgroundOutline=1;size=15;" parent="1" vertex="1">
          <mxGeometry x="395" y="740" width="60" height="80" as="geometry" />
        </mxCell>
        <mxCell id="FDbi_Wailx2Y1f7848vw-12" style="edgeStyle=orthogonalEdgeStyle;rounded=0;orthogonalLoop=1;jettySize=auto;html=1;entryX=1;entryY=0.5;entryDx=0;entryDy=0;" parent="1" source="rCTr0ygX4qg42ZaqoY2R-38" target="rCTr0ygX4qg42ZaqoY2R-4" edge="1">
          <mxGeometry relative="1" as="geometry" />
        </mxCell>
        <mxCell id="l2jQnzpIf_8DxFZvxWi1-16" style="edgeStyle=orthogonalEdgeStyle;rounded=0;orthogonalLoop=1;jettySize=auto;html=1;entryX=0;entryY=0.5;entryDx=0;entryDy=0;fontSize=14;" edge="1" parent="1" source="rCTr0ygX4qg42ZaqoY2R-38" target="rCTr0ygX4qg42ZaqoY2R-5">
          <mxGeometry relative="1" as="geometry" />
        </mxCell>
        <mxCell id="rCTr0ygX4qg42ZaqoY2R-38" value="Comunication" style="rounded=1;whiteSpace=wrap;html=1;" parent="1" vertex="1">
          <mxGeometry x="535" y="590" width="120" height="60" as="geometry" />
        </mxCell>
        <mxCell id="FDbi_Wailx2Y1f7848vw-21" style="edgeStyle=orthogonalEdgeStyle;rounded=0;orthogonalLoop=1;jettySize=auto;html=1;" parent="1" source="rCTr0ygX4qg42ZaqoY2R-41" edge="1">
          <mxGeometry relative="1" as="geometry">
            <mxPoint x="760" y="690" as="targetPoint" />
          </mxGeometry>
        </mxCell>
        <mxCell id="rCTr0ygX4qg42ZaqoY2R-41" value="DB" style="shape=cylinder3;whiteSpace=wrap;html=1;boundedLbl=1;backgroundOutline=1;size=15;" parent="1" vertex="1">
          <mxGeometry x="730" y="740" width="60" height="80" as="geometry" />
        </mxCell>
        <mxCell id="rCTr0ygX4qg42ZaqoY2R-45" value="" style="endArrow=classic;startArrow=classic;html=1;rounded=0;entryX=0.5;entryY=1;entryDx=0;entryDy=0;" parent="1" source="rCTr0ygX4qg42ZaqoY2R-32" target="rCTr0ygX4qg42ZaqoY2R-19" edge="1">
          <mxGeometry width="50" height="50" relative="1" as="geometry">
            <mxPoint x="390" y="360" as="sourcePoint" />
            <mxPoint x="440" y="310" as="targetPoint" />
          </mxGeometry>
        </mxCell>
        <mxCell id="rCTr0ygX4qg42ZaqoY2R-46" value="" style="endArrow=classic;startArrow=classic;html=1;rounded=0;entryX=0.5;entryY=1;entryDx=0;entryDy=0;" parent="1" source="rCTr0ygX4qg42ZaqoY2R-32" target="rCTr0ygX4qg42ZaqoY2R-16" edge="1">
          <mxGeometry width="50" height="50" relative="1" as="geometry">
            <mxPoint x="390" y="360" as="sourcePoint" />
            <mxPoint x="440" y="310" as="targetPoint" />
          </mxGeometry>
        </mxCell>
        <mxCell id="rCTr0ygX4qg42ZaqoY2R-47" value="" style="endArrow=classic;startArrow=classic;html=1;rounded=0;exitX=0.5;exitY=0;exitDx=0;exitDy=0;" parent="1" source="rCTr0ygX4qg42ZaqoY2R-2" target="rCTr0ygX4qg42ZaqoY2R-32" edge="1">
          <mxGeometry width="50" height="50" relative="1" as="geometry">
            <mxPoint x="390" y="360" as="sourcePoint" />
            <mxPoint x="440" y="310" as="targetPoint" />
          </mxGeometry>
        </mxCell>
        <mxCell id="rCTr0ygX4qg42ZaqoY2R-48" value="" style="endArrow=classic;startArrow=classic;html=1;rounded=0;exitX=0.5;exitY=0;exitDx=0;exitDy=0;entryX=0.525;entryY=1;entryDx=0;entryDy=0;entryPerimeter=0;" parent="1" source="rCTr0ygX4qg42ZaqoY2R-4" target="rCTr0ygX4qg42ZaqoY2R-32" edge="1">
          <mxGeometry width="50" height="50" relative="1" as="geometry">
            <mxPoint x="390" y="360" as="sourcePoint" />
            <mxPoint x="425" y="410" as="targetPoint" />
          </mxGeometry>
        </mxCell>
        <mxCell id="rCTr0ygX4qg42ZaqoY2R-49" value="" style="endArrow=classic;startArrow=classic;html=1;rounded=0;exitX=0.457;exitY=-0.007;exitDx=0;exitDy=0;exitPerimeter=0;" parent="1" target="rCTr0ygX4qg42ZaqoY2R-32" edge="1">
          <mxGeometry width="50" height="50" relative="1" as="geometry">
            <mxPoint x="753.98" y="549.02" as="sourcePoint" />
            <mxPoint x="440" y="310" as="targetPoint" />
          </mxGeometry>
        </mxCell>
        <mxCell id="rCTr0ygX4qg42ZaqoY2R-50" value="request/response" style="text;html=1;align=center;verticalAlign=middle;resizable=0;points=[];autosize=1;strokeColor=none;fillColor=none;rotation=-30;" parent="1" vertex="1">
          <mxGeometry x="180" y="440" width="110" height="20" as="geometry" />
        </mxCell>
        <mxCell id="rCTr0ygX4qg42ZaqoY2R-51" value="request/response" style="text;html=1;align=center;verticalAlign=middle;resizable=0;points=[];autosize=1;strokeColor=none;fillColor=none;rotation=30;" parent="1" vertex="1">
          <mxGeometry x="540" y="430" width="110" height="20" as="geometry" />
        </mxCell>
        <mxCell id="rCTr0ygX4qg42ZaqoY2R-53" value="request" style="text;html=1;align=center;verticalAlign=middle;resizable=0;points=[];autosize=1;strokeColor=none;fillColor=none;" parent="1" vertex="1">
          <mxGeometry x="365" y="470" width="60" height="20" as="geometry" />
        </mxCell>
        <mxCell id="rCTr0ygX4qg42ZaqoY2R-55" value="response" style="text;html=1;align=center;verticalAlign=middle;resizable=0;points=[];autosize=1;strokeColor=none;fillColor=none;" parent="1" vertex="1">
          <mxGeometry x="425" y="470" width="60" height="20" as="geometry" />
        </mxCell>
        <mxCell id="rCTr0ygX4qg42ZaqoY2R-57" value="REST API" style="whiteSpace=wrap;html=1;aspect=fixed;fontSize=9;fillColor=#fff2cc;strokeColor=#d6b656;" parent="1" vertex="1">
          <mxGeometry x="65" y="630" width="30" height="30" as="geometry" />
        </mxCell>
        <mxCell id="rCTr0ygX4qg42ZaqoY2R-58" value="REST API" style="whiteSpace=wrap;html=1;aspect=fixed;fontSize=9;fillColor=#fff2cc;strokeColor=#d6b656;" parent="1" vertex="1">
          <mxGeometry x="410" y="630" width="30" height="30" as="geometry" />
        </mxCell>
        <mxCell id="rCTr0ygX4qg42ZaqoY2R-59" value="REST API" style="whiteSpace=wrap;html=1;aspect=fixed;fontSize=9;fillColor=#fff2cc;strokeColor=#d6b656;" parent="1" vertex="1">
          <mxGeometry x="750" y="630" width="30" height="30" as="geometry" />
        </mxCell>
        <mxCell id="rCTr0ygX4qg42ZaqoY2R-60" value="&lt;font style=&quot;font-size: 7px&quot;&gt;NGINX&lt;/font&gt;" style="whiteSpace=wrap;html=1;aspect=fixed;fontSize=9;fillColor=#ffe6cc;strokeColor=#d79b00;" parent="1" vertex="1">
          <mxGeometry x="405" y="370" width="30" height="30" as="geometry" />
        </mxCell>
        <mxCell id="rCTr0ygX4qg42ZaqoY2R-65" value="&lt;h1&gt;Microservice architecture&lt;/h1&gt;&lt;h1&gt;&lt;br&gt;&lt;/h1&gt;" style="text;html=1;strokeColor=none;fillColor=none;spacing=5;spacingTop=-20;whiteSpace=wrap;overflow=hidden;rounded=0;fontSize=14;align=center;" parent="1" vertex="1">
          <mxGeometry x="170" y="30" width="510" height="50" as="geometry" />
        </mxCell>
        <mxCell id="l2jQnzpIf_8DxFZvxWi1-1" value="&lt;font style=&quot;font-size: 14px&quot;&gt;&lt;b&gt;For situations that need to move an event between services we will use Event Driven. implemen with socket/grpc.&lt;/b&gt;&lt;/font&gt;" style="text;html=1;strokeColor=none;fillColor=none;align=left;verticalAlign=middle;whiteSpace=wrap;rounded=0;" vertex="1" parent="1">
          <mxGeometry x="77.5" y="900" width="720" height="30" as="geometry" />
        </mxCell>
        <mxCell id="l2jQnzpIf_8DxFZvxWi1-2" value="&lt;font style=&quot;font-size: 14px&quot;&gt;&lt;b&gt;For situations where we just need to pass information to a particular service or get information we will use Message drive. implement with http/grpc/socket&lt;/b&gt;&lt;/font&gt;" style="text;html=1;strokeColor=none;fillColor=none;align=left;verticalAlign=middle;whiteSpace=wrap;rounded=0;" vertex="1" parent="1">
          <mxGeometry x="80" y="950" width="665" height="30" as="geometry" />
        </mxCell>
        <mxCell id="l2jQnzpIf_8DxFZvxWi1-3" value="Layer" style="shape=hexagon;perimeter=hexagonPerimeter2;whiteSpace=wrap;html=1;fixedSize=1;fillColor=#f5f5f5;strokeColor=#666666;fontColor=#333333;" vertex="1" parent="1">
          <mxGeometry x="205" y="690" width="90" height="50" as="geometry" />
        </mxCell>
        <mxCell id="l2jQnzpIf_8DxFZvxWi1-8" value="" style="curved=1;endArrow=classic;html=1;rounded=0;entryX=0;entryY=0.5;entryDx=0;entryDy=0;" edge="1" parent="1" target="l2jQnzpIf_8DxFZvxWi1-3">
          <mxGeometry width="50" height="50" relative="1" as="geometry">
            <mxPoint x="121" y="680" as="sourcePoint" />
            <mxPoint x="195" y="700" as="targetPoint" />
            <Array as="points">
              <mxPoint x="121" y="700" />
              <mxPoint x="165" y="720" />
            </Array>
          </mxGeometry>
        </mxCell>
        <mxCell id="l2jQnzpIf_8DxFZvxWi1-10" value="" style="curved=1;endArrow=classic;html=1;rounded=0;exitX=1;exitY=0.5;exitDx=0;exitDy=0;entryX=0.179;entryY=0.921;entryDx=0;entryDy=0;entryPerimeter=0;" edge="1" parent="1" source="l2jQnzpIf_8DxFZvxWi1-3" target="rCTr0ygX4qg42ZaqoY2R-4">
          <mxGeometry width="50" height="50" relative="1" as="geometry">
            <mxPoint x="305.02" y="696.01" as="sourcePoint" />
            <mxPoint x="389" y="728.99" as="targetPoint" />
            <Array as="points">
              <mxPoint x="305" y="713.99" />
              <mxPoint x="365" y="700" />
            </Array>
          </mxGeometry>
        </mxCell>
        <mxCell id="l2jQnzpIf_8DxFZvxWi1-12" value="&lt;font style=&quot;font-size: 14px&quot;&gt;&lt;b&gt;The layer can be used to separate code to make it more efficient,readble and scalable.&amp;nbsp;More suitable for the information&amp;nbsp;of Message driven.&lt;/b&gt;&lt;/font&gt;" style="text;html=1;strokeColor=none;fillColor=none;align=left;verticalAlign=middle;whiteSpace=wrap;rounded=0;" vertex="1" parent="1">
          <mxGeometry x="75" y="1000" width="670" height="30" as="geometry" />
        </mxCell>
      </root>
    </mxGraphModel>
  </diagram>
</mxfile>
